<?xml version="1.0" standalone="no"?>
<!DOCTYPE svg PUBLIC "-//W3C//DTD SVG 20010904//EN"
 "http://www.w3.org/TR/2001/REC-SVG-20010904/DTD/svg10.dtd">
<svg version="1.0" xmlns="http://www.w3.org/2000/svg"
 width="500.000000pt" height="500.000000pt" viewBox="0 0 500.000000 500.000000"
 preserveAspectRatio="xMidYMid meet">
<metadata>
Created by potrace 1.14, written by Peter Selinger 2001-2017
</metadata>
<g transform="translate(0.000000,500.000000) scale(0.100000,-0.100000)"
fill="#000000" stroke="none">
<path d="M2487 4194 c-1 -1 -47 -5 -102 -8 -55 -4 -109 -8 -120 -10 -100 -16
-131 -20 -137 -18 -5 1 -8 -2 -8 -6 0 -4 -8 -8 -17 -8 -26 -2 -71 -12 -83 -19
-6 -4 -22 -9 -37 -11 -15 -3 -32 -9 -38 -13 -5 -5 -28 -14 -50 -20 -39 -12
-114 -44 -145 -62 -8 -5 -37 -20 -64 -34 -27 -14 -69 -39 -93 -55 -24 -17 -48
-30 -53 -30 -4 0 -10 -3 -12 -7 -1 -5 -37 -35 -78 -67 -72 -57 -280 -263 -280
-277 0 -3 -13 -22 -30 -40 -16 -19 -32 -42 -36 -51 -3 -10 -9 -18 -14 -18 -4
0 -10 -8 -14 -17 -3 -10 -17 -36 -31 -58 -43 -69 -92 -167 -120 -240 -51 -133
-55 -145 -47 -145 4 0 2 -4 -4 -8 -7 -4 -14 -23 -17 -42 -3 -19 -8 -46 -11
-60 -21 -94 -27 -133 -23 -145 3 -7 3 -16 0 -19 -10 -10 -16 -74 -16 -181 -1
-93 3 -151 19 -280 9 -77 11 -89 17 -105 3 -8 11 -40 18 -70 7 -30 14 -57 14
-60 4 -14 17 -47 26 -62 5 -10 9 -25 9 -33 0 -8 4 -23 9 -33 51 -97 109 -222
103 -222 -4 0 1 -5 10 -11 10 -5 18 -14 18 -20 0 -9 48 -87 60 -99 3 -3 21
-25 39 -50 19 -25 44 -55 55 -67 12 -12 35 -38 51 -59 17 -21 36 -43 43 -48 7
-6 30 -27 51 -46 21 -20 60 -54 87 -75 27 -22 51 -42 54 -45 13 -13 129 -88
163 -105 20 -11 37 -23 37 -27 0 -5 3 -7 8 -6 4 1 35 -12 68 -29 34 -17 76
-34 93 -38 17 -4 31 -10 31 -15 0 -5 15 -12 33 -16 40 -10 38 -9 62 -18 36
-14 69 -24 100 -31 17 -4 39 -9 50 -11 11 -3 36 -7 55 -9 19 -2 35 -4 35 -5 0
-3 44 -10 110 -16 121 -12 281 -7 415 11 102 14 110 16 173 33 20 6 38 7 41 4
3 -3 6 0 6 6 0 7 3 11 8 10 9 -2 63 13 77 21 6 3 19 7 29 8 11 2 24 7 30 11 6
5 43 21 81 37 39 15 77 34 86 42 9 7 19 10 22 6 4 -3 7 -1 7 5 0 7 5 12 11 12
6 0 17 7 26 15 8 8 19 13 24 10 5 -4 9 -1 9 4 0 6 7 11 15 11 8 0 15 3 15 8 0
4 16 16 35 26 19 11 35 23 35 28 0 4 7 8 15 8 8 0 19 9 25 20 6 11 15 20 20
20 10 0 37 22 102 83 22 20 44 37 49 37 5 0 9 7 9 15 0 7 6 18 14 22 7 4 45
44 82 89 94 110 105 124 98 124 -3 0 1 7 9 15 20 19 117 189 117 204 0 6 5 11
12 11 6 0 8 3 5 7 -4 3 -3 11 2 17 5 6 19 38 31 71 12 33 26 69 31 80 6 12 11
27 13 35 2 8 8 27 14 41 5 14 13 43 16 63 4 21 8 41 10 45 3 3 7 25 10 47 4
22 9 51 11 64 12 58 18 173 16 290 -2 110 -6 185 -10 185 -1 0 -4 20 -6 45 -3
25 -7 55 -10 68 -3 12 -7 30 -9 40 -2 9 -9 37 -16 62 -7 25 -14 52 -15 60 -2
8 -4 16 -5 18 -2 1 -3 5 -4 10 -2 9 -23 63 -50 127 -27 64 -115 238 -124 245
-4 3 -13 17 -21 32 -48 93 -272 333 -396 422 -14 11 -38 30 -53 43 -15 13 -33
23 -39 23 -7 0 -13 5 -13 10 0 6 -7 10 -15 10 -8 0 -15 4 -15 8 0 5 -17 16
-37 26 -21 10 -49 25 -63 34 -14 9 -28 17 -31 17 -3 0 -35 13 -70 29 -94 42
-97 44 -182 71 -42 15 -82 23 -87 20 -6 -3 -10 -2 -10 3 0 9 -7 11 -57 15 -18
1 -33 6 -33 11 0 4 -9 6 -20 3 -11 -3 -22 -2 -25 2 -2 4 -22 7 -45 7 -22 -1
-40 1 -40 4 0 3 -28 7 -62 9 -35 1 -80 3 -101 4 -21 1 -39 1 -40 1z"/>
</g>
</svg>
